<svg xmlns="http://www.w3.org/2000/svg" viewBox="0 0 132 132"><defs><style>.cls-1{fill:#0f1d2c;}.cls-2{fill:#fff;}</style></defs><g id="Layer_2" data-name="Layer 2"><g id="Layer_1-2" data-name="Layer 1"><rect class="cls-1" width="132" height="132"/><path class="cls-2" d="M50.54,78c.1,4,2.47,13.22,15.73,13.22,7.19,0,13.48-1.69,13.48-9.23,0-5.55-3.76-7-11.45-8.82l-7.8-1.79C48.75,68.68,37.41,66.1,37.41,50.43c0-7.93,4.36-21.91,28-21.91,22.28,0,28.25,14.28,28.36,23H79.13c-.4-3.17-1.33-10.7-14.59-10.7-5.78,0-10.22,2.08-10.22,8.52,0,5.55,1.93,6.74,5,7.44l17.77,3.9c9.92,2.38,19,6.71,19,19.5,0,21.42-22.28,23.3-28.66,23.3C40.85,103.48,36,86.8,36,78Z"/></g></g></svg>